<?xml version="1.0" encoding="UTF-8" standalone="no"?>
<!-- Created with Inkscape (http://www.inkscape.org/) -->

<svg
   width="198.86276mm"
   height="25.277855mm"
   viewBox="0 0 198.86276 25.277855"
   version="1.1"
   id="svg1"
   xml:space="preserve"
   xmlns="http://www.w3.org/2000/svg"
   xmlns:svg="http://www.w3.org/2000/svg"><defs
     id="defs1"><linearGradient
       id="swatch8"><stop
         style="stop-color:#000000;stop-opacity:1;"
         offset="0"
         id="stop9" /></linearGradient><rect
       x="103.30534"
       y="2.4307139"
       width="487.21619"
       height="106.92095"
       id="rect3" /></defs><g
     id="layer1"
     transform="matrix(1.1345502,0,0,1.1138326,-9.1267524,-98.38075)"
     style="fill:#ffffff;fill-opacity:1;stroke:#570abb;stroke-width:1.2;stroke-dasharray:none;stroke-opacity:1"><path
       style="opacity:0.86;fill:#ffffff;fill-opacity:1;stroke:#570abb;stroke-width:0.819367;stroke-linecap:round;stroke-linejoin:round;stroke-dasharray:none;stroke-opacity:1"
       d="m 12.454313,108.36899 c -1.796327,-0.51418 -3.2428008,-1.95745 -3.8279764,-3.81947 -0.3267523,-1.03973 -0.1587505,-3.03414 0.341236,-4.05094 0.5749537,-1.169249 1.9323744,-2.380065 3.1314884,-2.793276 1.069629,-0.368599 3.146888,-0.337211 3.523217,0.05319 0.114734,0.119034 -0.03518,0.524734 -0.402639,1.089611 -0.717099,1.102381 -0.97253,1.769275 -1.176052,3.070575 -0.280023,1.79042 0.285289,4.04608 1.377733,5.49731 0.481789,0.64003 0.456242,0.77447 -0.171711,0.90364 -1.362002,0.28018 -1.952414,0.2906 -2.795296,0.0493 z m 7.159094,-3.4e-4 c -1.753854,-0.50136 -3.212738,-1.92903 -3.801015,-3.71968 -0.287251,-0.87436 -0.273667,-2.56849 0.02642,-3.29362 l 0.233133,-0.56336 0.773956,0.6078 c 1.191568,0.93575 2.968829,1.48147 4.514186,1.38612 1.377001,-0.085 3.238488,-0.82823 4.046371,-1.61564 0.239336,-0.23328 0.47842,-0.37925 0.531298,-0.32439 0.237486,0.24639 0.43503,2.16148 0.307377,2.97989 -0.511458,3.27907 -3.615195,5.4052 -6.631717,4.54288 z m 0.253218,-7.36739 c -0.466977,-0.0963 -0.882878,-0.21026 -0.924224,-0.25315 -0.04135,-0.0429 0.230501,-0.54926 0.604106,-1.125248 1.667609,-2.570963 1.669747,-5.732425 0.0055,-8.160954 -0.388734,-0.56726 -0.59527,-1.04767 -0.495095,-1.151599 0.09453,-0.09808 0.733926,-0.225125 1.420876,-0.28234 3.223797,-0.268471 5.800676,2.151485 5.800676,5.447444 0,3.622328 -3.02054,6.225477 -6.411857,5.525847 z M 8.6100151,97.061292 C 8.2990466,96.08372 8.4808569,94.058887 8.9674858,93.080116 c 0.9111433,-1.832605 2.8220122,-3.093519 4.6997432,-3.101205 3.438019,-0.01404 5.635843,2.581979 5.434691,6.419372 -0.06687,1.275648 -0.261078,1.351481 -1.41899,0.554088 -1.258573,-0.866716 -2.378514,-1.20206 -3.984522,-1.193092 -1.513274,0.0084 -2.908425,0.478369 -4.009787,1.350571 l -0.849224,0.672532 z"
       id="path1" /></g><text
     xml:space="preserve"
     transform="matrix(0.47607029,0,0,0.33845624,-26.913984,-4.1721659)"
     id="text3"
     style="font-style:normal;font-variant:normal;font-weight:normal;font-stretch:normal;font-size:74.6667px;font-family:Tahoma;-inkscape-font-specification:Tahoma;writing-mode:lr-tb;direction:ltr;white-space:pre;shape-inside:url(#rect3);mix-blend-mode:multiply;fill:#ffffff;fill-opacity:1;stroke:#5a0cbd;stroke-width:2.42645;stroke-dasharray:none;stroke-opacity:0.862745"><tspan
       x="103.30469"
       y="70.552337"
       id="tspan1">satu.pro.bd</tspan></text><path
     style="fill:#570abb;fill-opacity:0.862745;stroke:#5a0cbd;stroke-width:0.0523153;stroke-opacity:0.862745"
     d="M 29.199586,20.433455 C 27.916195,20.387797 26.848768,20.244512 25.598823,19.95011 24.659706,19.728919 23.923206,19.512985 23.189159,19.243626 L 22.858748,19.122381 V 17.49718 15.871979 h 0.469939 0.469938 l 0.265492,0.147475 c 0.34774,0.19316 0.825146,0.442031 1.008543,0.525751 0.950826,0.434047 2.529681,0.890569 3.591372,1.038435 1.138624,0.158582 2.510801,0.09781 3.558767,-0.157606 0.550762,-0.134236 1.069203,-0.449288 1.208694,-0.734513 0.08569,-0.175213 0.104486,-0.282956 0.105801,-0.606373 0.0011,-0.262318 -0.0021,-0.302346 -0.03088,-0.401947 -0.112096,-0.386724 -0.33709,-0.595924 -0.856832,-0.796686 -0.577797,-0.223187 -1.215917,-0.353229 -3.218149,-0.65582 -1.304157,-0.197094 -2.197938,-0.376474 -2.870665,-0.576138 -1.157698,-0.343602 -2.01478,-0.806592 -2.594249,-1.401395 -0.568579,-0.583625 -0.86872,-1.180397 -0.98888,-1.966192 -0.03113,-0.203592 -0.03526,-0.7226199 -0.0073,-0.9237294 0.03922,-0.2825414 0.109194,-0.5565574 0.205937,-0.8064667 0.04825,-0.1246354 0.188777,-0.4117099 0.25045,-0.5116242 l 0.02851,-0.046186 h 0.632608 c 0.347935,0 0.632609,0.00333 0.632609,0.00741 0,0.00407 -0.03114,0.047242 -0.06919,0.095926 -0.275498,0.3524301 -0.464714,0.8032734 -0.535173,1.275152 -0.03277,0.2195015 -0.03267,0.6165016 2.23e-4,0.8455673 0.09118,0.634943 0.36372,1.164932 0.833511,1.620849 0.556994,0.540545 1.422527,0.939453 2.662615,1.227152 0.4832,0.112102 1.308028,0.25882 2.245373,0.399401 1.583727,0.237524 2.227955,0.36117 2.861937,0.54929 0.443389,0.131566 0.83104,0.293387 1.078124,0.450053 l 0.0604,0.03829 v 1.567127 1.567126 l -0.131453,0.07934 c -0.467616,0.282246 -0.83485,0.415577 -1.517046,0.550797 -1.302311,0.258133 -2.834997,0.274015 -4.142571,0.04293 -1.262713,-0.223161 -2.849135,-0.717562 -3.791978,-1.181751 -0.139361,-0.06861 -0.25932,-0.124749 -0.266576,-0.124749 -0.008,0 -0.01175,0.319413 -0.0095,0.812331 l 0.0037,0.812331 0.163429,0.05506 c 0.903667,0.304463 2.269381,0.634103 3.190419,0.770066 1.201518,0.177367 2.609342,0.223898 3.900979,0.128933 0.942965,-0.06933 1.699168,-0.212219 2.433672,-0.459858 l 0.166981,-0.0563 v 0.444455 0.444455 l -0.188298,0.05139 c -0.856875,0.233848 -1.664272,0.35353 -2.746317,0.40709 -0.422439,0.02091 -1.330738,0.02862 -1.72403,0.01462 z"
     id="path3" /><path
     style="fill:#570abb;fill-opacity:0.862745;stroke:#5a0cbd;stroke-width:0.209261;stroke-opacity:0.862745"
     d="m 43.677874,20.371319 c -2.676419,-0.437099 -4.45125,-1.79919 -5.001662,-3.838518 -0.102627,-0.380245 -0.08471,-1.376879 0.03321,-1.847459 0.441148,-1.760432 1.888159,-2.900148 4.547428,-3.581709 1.556655,-0.398965 3.263024,-0.598421 6.837698,-0.799254 0.786675,-0.0442 0.738791,-0.0014 0.634331,-0.5665088 C 50.650714,9.3150184 50.5182,9.0574886 50.24148,8.7906569 49.777557,8.3433076 49.119898,8.1623704 47.577536,8.0577446 45.988141,7.9499288 43.91225,8.1896484 41.979945,8.7041426 41.391112,8.8609244 40.943289,8.9457154 40.629879,8.9597637 l -0.468971,0.021021 V 7.4735738 c 0,-0.8292333 0.02297,-1.521401 0.05104,-1.5387564 0.09332,-0.057672 2.349248,-0.4225022 3.416498,-0.552518 0.911278,-0.1110144 1.324748,-0.128143 3.098046,-0.1283398 2.164797,-2.405e-4 2.933382,0.05937 4.007564,0.3108219 2.146046,0.5023609 3.525518,1.4960856 4.070678,2.9323763 0.30003,0.7904707 0.302258,0.837484 0.304396,6.4297752 l 0.0019,5.187095 h -2.160106 -2.160106 v -0.544763 c 0,-0.29962 -0.01918,-0.535023 -0.04263,-0.523119 -1.208756,0.613669 -2.29753,1.01785 -3.339637,1.23976 -0.748112,0.159306 -2.967212,0.21011 -3.730757,0.08541 z m 2.564384,-0.713941 c 0.759547,-0.06722 1.449501,-0.218643 2.246426,-0.493011 0.536197,-0.184603 0.957289,-0.390695 2.634295,-1.289282 0.385866,-0.206757 0.712012,-0.375921 0.724773,-0.375921 0.01275,0 0.0232,0.409283 0.0232,0.909518 V 19.3182 h 1.082678 1.082677 l -0.01892,-4.931293 C 53.996703,8.987682 54.012181,9.2417135 53.656526,8.463027 53.049921,7.1348491 51.440185,6.3103226 49.00028,6.0780401 46.818542,5.8703356 44.690276,5.9679308 41.89467,6.4038795 l -0.625293,0.097509 -0.01585,0.7851113 c -0.01474,0.7303347 -0.0088,0.7829312 0.08527,0.7538607 0.774319,-0.2393228 2.883717,-0.6141874 4.051832,-0.7200578 0.93527,-0.084767 2.755802,-0.039526 3.524382,0.087582 1.035193,0.1712008 1.759595,0.485331 2.250988,0.9761204 0.519218,0.5185831 0.704945,1.0621854 0.704945,2.0632999 v 0.549838 l -1.492176,0.07026 c -4.059947,0.191165 -6.063075,0.461197 -7.696375,1.037509 -2.009849,0.709179 -2.976253,1.854581 -2.976253,3.527516 0,0.632661 0.07702,0.999327 0.314497,1.497245 0.390488,0.818723 1.041115,1.443056 1.989056,1.908673 1.16863,0.574015 2.515489,0.771 4.232555,0.619032 z"
     id="path4" /><path
     style="fill:#570abb;fill-opacity:0.862745;stroke:#5a0cbd;stroke-width:0.209261;stroke-opacity:0.862745"
     d="m 33.919691,19.479694 0.0167,-0.406956 0.400708,-0.175704 c 0.773073,-0.33898 1.130049,-0.569123 1.594745,-1.028132 0.771638,-0.762198 1.085236,-1.62432 0.937413,-2.577067 -0.158155,-1.019326 -0.586385,-1.611536 -1.540166,-2.129927 -0.810633,-0.440588 -1.618165,-0.649745 -3.780187,-0.979095 -3.084176,-0.469827 -4.021611,-0.743503 -4.690779,-1.36943 -0.378963,-0.354476 -0.531305,-0.724519 -0.535578,-1.3009248 -0.0027,-0.3659174 0.02249,-0.5072766 0.129026,-0.7235846 0.739673,-1.5018695 3.95535,-2.0509799 7.263023,-1.2402376 0.705421,0.1729058 1.622361,0.475478 2.155637,0.7113172 L 36.18176,8.3977268 V 7.6074997 6.8172727 L 35.717326,6.6705588 C 35.098632,6.4751133 33.760717,6.2086241 32.88402,6.1062148 29.34911,5.6932917 26.585741,6.2479603 24.987883,7.6911406 l -0.317212,0.2865059 -0.554238,-0.018113 c -0.35236,-0.011515 -0.554238,-0.040767 -0.554238,-0.08031 0,-0.034209 0.223827,-0.2829192 0.497393,-0.5526897 1.014574,-1.0004973 2.497175,-1.6598426 4.419691,-1.9655332 0.791146,-0.125797 2.839754,-0.1723004 3.84752,-0.087339 1.516259,0.1278313 3.291345,0.4866124 4.428726,0.8951349 l 0.563131,0.2022649 v 1.528064 1.528064 h -0.476504 c -0.465788,0 -0.492313,-0.00764 -1.179531,-0.3395271 C 34.799272,8.670708 33.832905,8.3486932 32.824959,8.1420904 32.121525,7.9979052 31.956144,7.9853557 30.753073,7.9848728 c -1.422185,-5.82e-4 -1.786149,0.05622 -2.5245,0.3939056 -0.581089,0.2657613 -0.805942,0.5733082 -0.80849,1.1058176 -0.003,0.623839 0.174985,0.893574 0.769583,1.166413 0.635598,0.291653 1.366004,0.445614 4.183486,0.881832 2.483445,0.384499 3.729754,0.868768 4.661693,1.811356 0.485413,0.490959 0.752862,0.970133 0.882227,1.58064 0.374944,1.769456 -0.531556,3.366687 -2.474296,4.359654 -0.541684,0.276864 -1.343276,0.602157 -1.483844,0.602157 -0.03305,0 -0.04911,-0.166587 -0.03925,-0.406956 z"
     id="path5" /><path
     style="fill:#570abb;fill-opacity:0.862745;stroke:#5a0cbd;stroke-width:0.209261;stroke-opacity:0.862745"
     d="m 43.761818,20.39461 c -0.973865,-0.150681 -2.029325,-0.509561 -2.838116,-0.965025 -0.554395,-0.312203 -1.450634,-1.175863 -1.740731,-1.677454 -0.49389,-0.853951 -0.66711,-1.645091 -0.55753,-2.546344 0.182607,-1.501854 0.958908,-2.534817 2.501831,-3.328995 1.582767,-0.814686 3.506438,-1.205808 7.162456,-1.456274 0.734719,-0.05033 1.591657,-0.108967 1.904301,-0.130296 l 0.56845,-0.03878 -0.01656,-0.2842246 C 50.717468,9.4788191 50.574217,9.1462561 50.254632,8.8266704 49.780801,8.3528371 49.136913,8.1674324 47.608905,8.064841 45.923025,7.9516502 43.80743,8.2074387 41.695713,8.779783 41.398698,8.8602836 40.931435,8.940134 40.657351,8.9572285 l -0.498338,0.03108 0.01516,-1.5283862 0.01516,-1.528386 0.454758,-0.096819 c 0.48777,-0.1038463 2.443096,-0.3924152 3.467539,-0.5117423 0.864804,-0.1007329 4.398084,-0.098641 5.229727,0.0031 2.598513,0.3178821 4.341731,1.1848037 5.187051,2.5795748 0.253891,0.4189203 0.45239,1.0192978 0.522888,1.5815326 0.03785,0.3018697 0.05982,2.3406736 0.05982,5.5519526 v 5.074897 H 52.95101 50.790904 v -0.511604 c 0,-0.31148 -0.02278,-0.511604 -0.05826,-0.511604 -0.03205,0 -0.242393,0.09272 -0.46744,0.206057 -0.813405,0.409625 -1.883769,0.778005 -2.88499,0.99291 -0.434853,0.09334 -0.80573,0.120103 -1.904304,0.137429 -0.750353,0.01183 -1.52169,-0.0028 -1.714087,-0.03261 z m 2.381216,-0.735576 c 0.781187,-0.06473 1.453891,-0.20401 2.200949,-0.45569 0.653098,-0.220025 1.15647,-0.457108 2.418496,-1.139081 1.121158,-0.605852 1.120497,-0.605552 1.106003,-0.501761 -0.0061,0.04333 -0.008,0.456082 -0.0043,0.917236 l 0.0067,0.838462 h 1.08445 1.084448 L 54.01583,14.415329 C 53.989491,9.006704 54.00272,9.2089541 53.622857,8.4089967 53.394988,7.9291227 52.734286,7.2570599 52.19669,6.9583067 51.379821,6.5043534 50.299977,6.2140388 48.886583,6.0683878 48.018771,5.9789595 45.465817,5.978185 44.53795,6.0670649 c -1.422615,0.1362771 -3.150188,0.4064455 -3.225948,0.504494 -0.07024,0.090903 -0.10712,1.3794954 -0.04136,1.4452526 0.01632,0.016333 0.32825,-0.043134 0.69315,-0.1321464 0.870434,-0.2123311 2.473714,-0.4793115 3.39493,-0.5653291 0.807786,-0.075426 2.740882,-0.04099 3.414173,0.060821 1.785085,0.2699276 2.816137,1.0197536 3.040406,2.2111126 0.0317,0.168407 0.05764,0.5548194 0.05764,0.8586944 v 0.552501 l -0.895305,0.03811 c -2.412923,0.10272 -4.874656,0.306572 -6.000615,0.496902 -3.12648,0.528493 -4.77653,1.577825 -5.18129,3.294984 -0.09899,0.419974 -0.112726,1.093285 -0.03133,1.53625 0.09706,0.528214 0.522613,1.305197 0.954934,1.743537 1.19942,1.216123 3.049841,1.74365 5.425686,1.546779 z"
     id="path6" /><path
     style="fill:#570abb;fill-opacity:0.862745;stroke:#5a0cbd;stroke-width:0.209261;stroke-opacity:0.862745"
     d="m 45.220104,18.291125 c -2.121691,-0.23574 -3.240159,-1.180325 -3.240159,-2.736424 0,-0.858539 0.326525,-1.430752 1.116309,-1.956256 0.852601,-0.567302 2.00837,-0.928458 3.601817,-1.125502 0.628769,-0.07775 2.535788,-0.230395 4.504955,-0.360586 l 0.667927,-0.04416 v 2.203775 2.203774 l -0.270012,0.172764 c -0.53721,0.343727 -2.046084,1.059415 -2.657499,1.260504 -0.343911,0.11311 -0.865201,0.246017 -1.158423,0.295351 -0.676092,0.113752 -1.937863,0.156431 -2.564915,0.08676 z m 2.07672,-0.79582 c 0.240045,-0.03339 0.62008,-0.10767 0.844523,-0.165072 0.501454,-0.128251 1.68194,-0.634386 2.23743,-0.959301 l 0.412123,-0.24106 v -1.619529 -1.61953 l -0.270012,0.03031 c -0.148506,0.01667 -0.832776,0.06987 -1.5206,0.118232 -2.847012,0.200161 -4.097153,0.452566 -5.017159,1.012968 -0.626959,0.381901 -0.870035,0.749293 -0.910728,1.376518 -0.03242,0.499774 0.08692,0.944276 0.345001,1.284932 0.245541,0.324109 0.87104,0.639079 1.490054,0.750316 0.548479,0.09856 1.788684,0.114765 2.389368,0.03122 z"
     id="path7" /><path
     style="fill:#570abb;fill-opacity:0.862745;stroke:#5a0cbd;stroke-width:0.209261;stroke-opacity:0.862745"
     d="m 63.533527,20.274474 c -1.143338,-0.143309 -2.365359,-0.59252 -3.116876,-1.145756 -0.682382,-0.502341 -1.190739,-1.281593 -1.452443,-2.226425 -0.123786,-0.446908 -0.126289,-0.525669 -0.144836,-4.561802 L 58.800507,8.2334483 H 57.694798 56.589091 V 6.8975938 5.5617391 h 1.108474 1.108475 V 3.5721682 1.5825973 h 2.18853 2.188527 v 1.9895709 1.9895709 h 2.984355 2.984357 v 1.3358547 1.3358545 h -2.987191 -2.987193 l 0.01704,3.9991727 0.01704,3.999172 0.199419,0.392095 c 0.153104,0.301034 0.262149,0.434092 0.469535,0.572928 0.402217,0.269267 0.772588,0.331348 1.94591,0.326166 0.99028,-0.0044 1.04857,-0.01123 1.811253,-0.213125 0.514574,-0.136216 0.914032,-0.208607 1.151109,-0.208607 h 0.363064 v 1.386247 1.386247 l -0.639506,0.122591 c -1.597771,0.306289 -3.781084,0.428259 -4.978765,0.278139 z m 3.372898,-0.812228 c 0.343913,-0.04498 0.7468,-0.09927 0.895308,-0.120643 l 0.270012,-0.03886 v -0.652071 c 0,-0.546019 -0.01339,-0.646932 -0.08235,-0.620469 -0.226605,0.08696 -1.032002,0.218715 -1.564426,0.255933 -1.199573,0.08385 -2.280404,-0.04615 -2.988937,-0.359493 -0.606853,-0.268379 -1.128585,-0.940654 -1.280236,-1.649648 -0.03837,-0.179385 -0.07234,-1.862049 -0.09208,-4.561802 l -0.03129,-4.2775769 h 3.019663 3.01966 V 6.8691712 6.3007224 H 65.058967 62.046188 V 4.3098974 2.3190722 l -1.065842,0.015465 -1.06584,0.015465 -0.01495,1.9753596 -0.01495,1.9753596 H 58.805293 57.725976 V 6.869171 7.4376198 h 1.076875 1.076873 l 0.02148,4.4196892 c 0.0241,4.959904 0.01281,4.815074 0.444341,5.690507 0.162669,0.330003 0.33554,0.574828 0.566346,0.802079 0.564809,0.556106 1.575869,0.994625 2.612255,1.13299 0.265751,0.03548 0.559922,0.07496 0.653717,0.08774 0.323067,0.044 2.104517,-0.02675 2.728553,-0.108377 z"
     id="path8" /><path
     style="fill:#570abb;fill-opacity:0.862745;stroke:#5a0cbd;stroke-width:0.209261;stroke-opacity:0.862745"
     d="M 63.498536,20.276377 C 62.549566,20.154728 61.495273,19.805052 60.751923,19.365411 60.293789,19.094455 59.657675,18.448422 59.410859,18.00343 59.140341,17.51571 58.940377,16.922043 58.86565,16.384779 58.82884,16.120162 58.80603,14.478478 58.80603,12.094787 V 8.2334483 H 57.697555 56.58908 V 6.8975938 5.5617391 h 1.108475 1.108474 V 3.5721682 1.5825973 h 2.18853 2.188528 v 1.9895709 1.9895709 h 2.984354 2.984357 v 1.3358547 1.3358545 h -2.987823 -2.987823 l 0.0191,3.9933527 c 0.01765,3.689607 0.02683,4.010057 0.120607,4.212955 0.216051,0.467422 0.385803,0.657804 0.743554,0.833924 0.707234,0.34817 2.326732,0.358074 3.557571,0.02176 0.297014,-0.08116 0.763852,-0.160595 1.037418,-0.176528 l 0.497393,-0.02897 v 1.393646 1.393645 l -0.270012,0.05782 c -1.610255,0.344819 -4.11642,0.503724 -5.38325,0.341328 z m 2.384682,-0.731668 c 0.437705,-0.0312 1.10999,-0.09852 1.493964,-0.149608 l 0.698138,-0.09289 -0.01601,-0.631509 c -0.01259,-0.496976 -0.03249,-0.628032 -0.09341,-0.61518 -0.04258,0.009 -0.260008,0.05514 -0.483179,0.10257 -0.92175,0.195905 -2.629522,0.194042 -3.40192,-0.0037 -1.03374,-0.264662 -1.634342,-0.82429 -1.897388,-1.767947 -0.08222,-0.294973 -0.09743,-0.87173 -0.122415,-4.642814 l -0.02853,-4.3059993 h 3.019634 3.019631 V 6.8691712 6.3007224 h -3.01277 -3.012779 V 4.3021811 2.3036397 l -1.034103,0.037458 c -0.729901,0.026439 -1.047366,0.058341 -1.079182,0.1084491 -0.02479,0.039045 -0.04547,0.9215329 -0.04595,1.9610837 l -7.93e-4,1.8900923 H 58.806103 57.72605 v 0.5684488 0.5684489 h 1.080053 1.080053 l 1.69e-4,2.6006525 c 2.54e-4,3.90219 0.04891,6.044287 0.149453,6.579795 0.274582,1.462466 1.354166,2.436984 3.089187,2.788544 0.942237,0.190922 1.573596,0.222531 2.758326,0.138097 z"
     id="path9" /><path
     style="fill:#570abb;fill-opacity:0.862745;stroke:#5a0cbd;stroke-width:0.209261;stroke-opacity:0.862745"
     d="m 75.491561,20.364835 c -1.552731,-0.241268 -2.684589,-0.728947 -3.537992,-1.524397 -0.919681,-0.85723 -1.38978,-1.79855 -1.549135,-3.101974 -0.0364,-0.297719 -0.05889,-2.333088 -0.05889,-5.329207 V 5.5617391 h 2.185638 2.185638 l 0.02072,4.9312939 c 0.02236,5.32137 0.01545,5.1986 0.32824,5.845517 0.194799,0.402911 0.594241,0.779279 0.980381,0.923753 0.762321,0.28522 2.202069,0.301562 3.280876,0.03724 0.717452,-0.175785 1.703142,-0.558924 2.45854,-0.955641 l 0.554239,-0.291071 V 10.807286 5.5617391 h 2.188527 2.188528 v 7.2761449 7.276145 h -2.188528 -2.188527 v -0.540027 c 0,-0.297014 -0.01331,-0.540026 -0.02956,-0.540026 -0.01624,0 -0.252872,0.111832 -0.525814,0.248515 -1.186878,0.594364 -2.267278,0.9445 -3.365672,1.090749 -0.751361,0.100041 -2.257094,0.09572 -2.927204,-0.0084 z m 3.068066,-0.791751 c 1.208559,-0.21182 2.249025,-0.656412 3.96493,-1.694219 l 0.895307,-0.541496 v 0.990416 0.990415 h 1.080053 1.080053 V 12.809461 6.3007224 h -1.080053 -1.080053 v 5.0473836 5.047384 l -0.35528,0.207581 c -1.351859,0.789858 -2.78434,1.338375 -4.065595,1.556773 -0.684228,0.116631 -2.39359,0.08144 -2.963947,-0.06101 -1.164847,-0.290941 -1.960197,-1.065258 -2.25076,-2.191236 -0.146058,-0.566005 -0.194493,-2.046694 -0.196638,-6.0114338 l -0.0019,-3.5954388 h -1.08409 -1.084091 l 0.02429,4.7323366 c 0.02603,5.071009 0.01841,4.932742 0.320289,5.802179 0.535548,1.542405 2.086758,2.584284 4.196389,2.818526 0.652923,0.0725 1.958155,0.03201 2.601135,-0.08068 z"
     id="path10" /><path
     style="fill:#570abb;fill-opacity:0.862745;stroke:#5a0cbd;stroke-width:0.209261;stroke-opacity:0.862745"
     d="m 91.264458,17.953923 v -2.160105 h 2.614864 2.614864 v 2.160105 2.160106 h -2.614864 -2.614864 z m 4.149675,0 v -1.364277 h -1.534811 -1.534811 v 1.364277 1.364277 h 1.534811 1.534811 z"
     id="path11" /><path
     style="fill:#570abb;fill-opacity:0.862745;stroke:#5a0cbd;stroke-width:0.209261;stroke-opacity:0.862745"
     d="M 101.09862,15.367481 V 5.5617391 h 2.16011 2.1601 v 0.4831815 c 0,0.2657496 0.009,0.4831813 0.0201,0.4831813 0.0111,0 0.26047,-0.1119706 0.55424,-0.248824 0.73915,-0.3443417 1.53508,-0.6347841 2.19392,-0.8005826 1.88064,-0.4732676 4.14785,-0.4042222 5.77282,0.1758054 2.33281,0.8326905 3.87785,2.6804913 4.34467,5.1960353 0.13505,0.727707 0.1365,2.427647 0.003,3.155988 -0.19975,1.087336 -0.69491,2.251244 -1.30449,3.066304 -0.63138,0.844207 -1.67311,1.713494 -2.67452,2.231775 -1.39521,0.722091 -2.81942,1.036805 -4.69198,1.036805 -1.4542,0 -2.81197,-0.199519 -3.85676,-0.566735 -0.18059,-0.06347 -0.33563,-0.115403 -0.34453,-0.115403 -0.009,0 -0.0162,1.240639 -0.0162,2.756976 v 2.756977 h -2.16011 -2.1601 z m 3.24016,6.025557 c 0,-1.67266 0.009,-3.041201 0.0202,-3.041201 0.0111,0 0.35004,0.138133 0.75319,0.306963 1.35294,0.566569 2.28443,0.795395 3.65084,0.896851 2.87903,0.213766 5.13175,-0.542235 6.7911,-2.279055 1.20942,-1.265887 1.75824,-2.773927 1.76019,-4.836626 0.002,-2.108803 -0.57071,-3.6339297 -1.82465,-4.8592199 -0.84816,-0.8287694 -1.81889,-1.3002897 -3.16737,-1.5384936 -0.80679,-0.1425173 -2.27872,-0.131867 -3.15167,0.022805 -1.26155,0.2235242 -2.6808,0.8094337 -4.05449,1.6738155 l -0.77733,0.4891296 V 7.2643643 6.3007224 h -1.08005 -1.08005 v 9.0667586 9.066759 h 1.08005 1.08005 z"
     id="path12" /><path
     style="fill:#570abb;fill-opacity:0.862745;stroke:#5a0cbd;stroke-width:0.209261;stroke-opacity:0.862745"
     d="m 108.34634,18.260928 c -1.19879,-0.08987 -2.08824,-0.269293 -3.28279,-0.66221 l -0.72477,-0.238395 V 13.254152 9.1479814 l 0.40787,-0.2382067 c 1.71395,-1.001004 3.52634,-1.5254018 5.28081,-1.5279582 2.21725,-0.00323 3.6643,0.7663455 4.43032,2.3561503 0.33725,0.6999372 0.49448,1.3156622 0.57687,2.2590932 0.25737,2.946981 -0.95272,5.069095 -3.36288,5.897455 -0.80107,0.275323 -2.31515,0.442152 -3.32543,0.366413 z m 2.44433,-0.92541 c 0.61166,-0.160666 1.40647,-0.565048 1.80187,-0.91675 0.90925,-0.808767 1.35303,-2.024859 1.35303,-3.707698 0,-2.549586 -0.87784,-4.0265354 -2.649,-4.456931 -0.53774,-0.1306705 -1.91242,-0.1322935 -2.62159,-0.0031 -0.72819,0.1326642 -1.6159,0.4392234 -2.50295,0.8643588 l -0.7532,0.3609819 v 3.7001503 3.70015 l 0.1478,0.05619 c 0.35637,0.135489 1.49972,0.411268 2.003,0.483128 0.83884,0.119772 2.62894,0.07504 3.22104,-0.08049 z"
     id="path13" /><path
     style="fill:#570abb;fill-opacity:0.862745;stroke:#5a0cbd;stroke-width:0.209261;stroke-opacity:0.862745"
     d="M 120.71011,12.837884 V 5.5617391 h 2.18852 2.18853 V 6.329145 c 0,0.4220731 0.0107,0.7674057 0.0238,0.7674057 0.0131,0 0.37762,-0.1769197 0.81004,-0.3931547 0.95006,-0.4750911 1.7136,-0.763306 2.5484,-0.961949 0.57231,-0.1361824 0.72885,-0.1488962 1.84746,-0.1500378 0.67219,-6.879e-4 1.34367,0.019505 1.49218,0.044869 l 0.27001,0.046117 v 1.5684145 1.5684145 l -0.72477,-0.051297 c -1.20163,-0.085047 -2.64281,-0.058929 -3.19753,0.057947 -0.98778,0.2081208 -1.78135,0.5018329 -2.57223,0.9520248 l -0.49739,0.28313 v 5.026499 5.026501 h -2.18853 -2.18853 z m 3.297,1.69028 V 9.7381282 l 0.46897,-0.2924339 c 1.01402,-0.6323079 1.97855,-1.0319718 3.14159,-1.3017466 0.61793,-0.1433324 0.80668,-0.1602703 2.03129,-0.1822815 l 1.35007,-0.024265 V 7.1485678 6.3597346 l -0.14952,-0.037528 c -0.2291,-0.057501 -1.41872,0.016087 -1.8969,0.1173372 -1.26406,0.2676578 -2.45618,0.8106015 -4.24087,1.9314802 l -0.67621,0.4246965 -0.0153,-1.2474982 -0.0153,-1.2474985 H 122.92596 121.847 V 12.809461 19.3182 h 1.08005 1.08005 z"
     id="path14" /><path
     style="fill:#570abb;fill-opacity:0.862745;stroke:#5a0cbd;stroke-width:0.209261;stroke-opacity:0.862745"
     d="m 140.26475,18.433557 c -0.0782,-0.01332 -0.32118,-0.05291 -0.54003,-0.08799 -0.93114,-0.149225 -1.9764,-0.600211 -2.6243,-1.132275 -0.71211,-0.584795 -1.26353,-1.49393 -1.53327,-2.527954 -0.1247,-0.477989 -0.15277,-0.731937 -0.1764,-1.595817 -0.0407,-1.488182 0.10627,-2.31414 0.58594,-3.2928424 0.95287,-1.9441795 3.46259,-2.9444772 6.41619,-2.5572942 1.95184,0.2558648 3.37277,1.1878204 4.07236,2.6709841 0.43102,0.9137775 0.59557,1.8982535 0.54631,3.2685805 -0.0792,2.203456 -0.88812,3.679049 -2.49073,4.543488 -0.93707,0.505443 -1.71253,0.684503 -3.09075,0.713674 -0.56277,0.01191 -1.08716,0.01076 -1.16532,-0.0026 z m 2.32709,-0.857364 c 1.60617,-0.326844 2.64997,-1.281044 3.09995,-2.833857 0.37606,-1.297677 0.30982,-3.164842 -0.15426,-4.348782 -0.34355,-0.8764717 -0.96622,-1.5497659 -1.81549,-1.963116 -0.79035,-0.3846692 -1.17628,-0.4530428 -2.54778,-0.4513707 -1.01853,0.00124 -1.22492,0.01724 -1.63849,0.1270035 -1.39773,0.3709651 -2.30658,1.1828846 -2.74841,2.4552832 -0.39543,1.138812 -0.43738,2.93501 -0.0972,4.162574 0.2045,0.737934 0.48373,1.219181 1.01658,1.752028 0.54022,0.540222 1.01797,0.816546 1.76219,1.019208 0.86645,0.235951 2.19252,0.270358 3.12292,0.08103 z"
     id="path15" /><path
     style="fill:#570abb;fill-opacity:0.862745;stroke:#5a0cbd;stroke-width:0.209261;stroke-opacity:0.862745"
     d="m 139.83841,20.416241 c -1.3897,-0.120678 -2.87106,-0.523508 -3.97228,-1.080188 -0.89376,-0.451807 -1.95893,-1.341947 -2.53342,-2.117125 -1.00589,-1.357294 -1.48856,-3.2543 -1.31249,-5.158417 0.22951,-2.4821279 1.35862,-4.2798177 3.46774,-5.5211006 1.44847,-0.8524721 3.15064,-1.2915458 5.26711,-1.358651 4.23326,-0.1342202 7.52784,1.4235467 8.91022,4.2129884 0.98327,1.9841032 0.96774,4.9615982 -0.0362,6.9400962 -1.14459,2.255677 -3.6485,3.726823 -6.91182,4.060975 -0.53926,0.05522 -2.33572,0.06859 -2.87885,0.02142 z m 2.50117,-0.760086 c 2.18521,-0.18832 3.86191,-0.859024 5.10806,-2.043301 0.52717,-0.500992 0.85066,-0.936726 1.16055,-1.563234 0.44341,-0.896447 0.62024,-1.641479 0.67462,-2.842245 0.13474,-2.975314 -1.04894,-5.1038881 -3.53253,-6.3524661 -1.90312,-0.9567558 -4.92991,-1.2024352 -7.41826,-0.6021282 -1.54585,0.372931 -3.06342,1.284741 -3.90176,2.3443128 -0.90661,1.1458493 -1.32751,2.4814335 -1.32751,4.2123675 0,2.04915 0.63329,3.663235 1.90348,4.851435 1.64652,1.540238 4.28458,2.258001 7.33335,1.995259 z"
     id="path16" /><path
     style="fill:#570abb;fill-opacity:0.862745;stroke:#5a0cbd;stroke-width:0.209261;stroke-opacity:0.862745"
     d="m 153.28222,17.953923 v -2.160105 h 2.61487 2.61486 v 2.160105 2.160106 h -2.61486 -2.61487 z m 4.14968,0 v -1.364277 h -1.53481 -1.53481 v 1.364277 1.364277 h 1.53481 1.53481 z"
     id="path17" /><path
     style="fill:#570abb;fill-opacity:0.862745;stroke:#5a0cbd;stroke-width:0.209261;stroke-opacity:0.862745"
     d="m 170.25042,18.352948 c -0.34391,-0.02539 -0.8683,-0.08811 -1.16532,-0.139375 -0.56619,-0.09772 -1.84453,-0.447201 -2.4017,-0.656587 l -0.32685,-0.122835 V 13.293961 9.1537716 L 166.818,8.8832407 c 0.98264,-0.576085 2.3986,-1.1144692 3.53985,-1.3459468 0.5359,-0.1086943 0.80375,-0.1275369 1.76845,-0.1244037 1.04151,0.00338 1.18328,0.016193 1.68965,0.1526718 1.91312,0.5156324 2.94211,1.8346205 3.22501,4.133933 0.16523,1.342895 -0.0141,2.86252 -0.45396,3.84632 -0.89897,2.010793 -3.21657,3.037498 -6.33658,2.807133 z m 2.58644,-0.907182 c 1.20937,-0.300545 2.14279,-0.994953 2.60704,-1.939474 0.52522,-1.068563 0.68109,-2.472265 0.4541,-4.08953 -0.1227,-0.87419 -0.44955,-1.6737607 -0.91021,-2.2266285 -1.17076,-1.4051237 -4.26938,-1.3978583 -6.98722,0.016383 l -0.4787,0.2490967 -0.0146,3.7638428 -0.0146,3.763844 0.55464,0.173523 c 0.52769,0.165089 1.48504,0.368686 1.97577,0.420178 0.12506,0.01312 0.70061,0.01598 1.27901,0.0064 0.83647,-0.01393 1.15049,-0.04208 1.53481,-0.137586 z"
     id="path18" /><path
     style="fill:#570abb;fill-opacity:0.862745;stroke:#5a0cbd;stroke-width:0.209261;stroke-opacity:0.862745"
     d="m 170.19358,20.392087 c -0.64332,-0.07727 -1.61783,-0.30338 -2.30531,-0.5349 -0.32323,-0.108854 -0.59142,-0.197917 -0.59596,-0.197917 -0.005,0 -0.0389,0.10232 -0.0764,0.227379 l -0.0681,0.22738 h -2.01571 -2.01571 V 10.10933 0.10463041 h 2.18853 2.18852 V 3.312486 6.5203417 l 0.55424,-0.2595949 c 1.77666,-0.8321532 3.29211,-1.1482522 5.18195,-1.0808708 1.36432,0.048645 2.39903,0.277091 3.40069,0.7508221 1.94585,0.9202714 3.18595,2.5329795 3.66005,4.7597429 0.14907,0.700131 0.20473,2.216441 0.10932,2.977592 -0.21006,1.67561 -0.89088,3.112088 -2.00804,4.236819 -1.26515,1.273723 -2.79878,2.062267 -4.70135,2.417276 -0.57976,0.108181 -2.8074,0.15275 -3.49672,0.06996 z m 3.2125,-0.814134 c 1.58295,-0.278389 2.85793,-0.914556 3.94973,-1.970774 1.18663,-1.147955 1.77068,-2.388652 1.96483,-4.173924 0.12343,-1.134899 -0.0384,-2.667504 -0.38306,-3.6273054 -0.58632,-1.6328847 -1.78196,-2.8501025 -3.38622,-3.44733 -1.21278,-0.4514911 -3.13825,-0.5576996 -4.62508,-0.2551192 -1.13931,0.2318549 -2.55692,0.8484468 -3.83075,1.6661871 l -0.71056,0.4561472 -0.0146,-3.6626882 -0.0146,-3.66268775 h -1.07964 -1.07964 V 10.10933 19.3182 h 1.04162 1.04162 l 0.13434,-0.428337 c 0.0756,-0.241154 0.16074,-0.416973 0.19475,-0.402332 1.67342,0.720238 2.78157,1.043845 4.01114,1.171356 0.65545,0.06797 2.19351,0.02329 2.78617,-0.08093 z"
     id="path19" /><path
     style="fill:#570abb;fill-opacity:0.862745;stroke:#5a0cbd;stroke-width:0.209261;stroke-opacity:0.862745"
     d="m 188.56811,18.151413 c -1.05309,-0.198092 -1.75984,-0.547273 -2.40778,-1.18961 -0.39396,-0.390541 -0.50385,-0.544698 -0.75153,-1.054296 -0.50552,-1.040051 -0.71401,-2.341523 -0.59036,-3.685368 0.10341,-1.124017 0.33591,-1.866483 0.81361,-2.5982537 0.74581,-1.1424578 1.86797,-1.8509606 3.47665,-2.1950497 0.763,-0.1632021 2.45545,-0.1765837 3.45334,-0.027304 0.67968,0.1016772 1.84293,0.3874994 2.52959,0.621548 l 0.39792,0.1356286 0.0146,4.1836248 0.0146,4.183625 -0.55564,0.314606 c -0.98476,0.557576 -2.14101,1.004704 -3.18786,1.232761 -0.72831,0.158661 -2.54375,0.202864 -3.20709,0.07809 z m 2.92519,-0.820871 c 0.74469,-0.157699 1.41507,-0.396746 2.24827,-0.801704 l 0.69635,-0.338445 V 12.41967 8.6489471 L 193.94053,8.501516 c -1.16325,-0.3447934 -2.12392,-0.4629301 -3.44508,-0.4236522 -1.12884,0.03356 -1.5937,0.1327163 -2.35914,0.50321 -0.38771,0.1876631 -0.57662,0.3283029 -0.9728,0.7242479 -0.55841,0.5580695 -0.811,0.9866333 -1.06144,1.8009093 -0.15079,0.490263 -0.15681,0.55775 -0.15958,1.788498 -0.003,1.161703 0.009,1.325932 0.12984,1.790613 0.43308,1.669408 1.32203,2.503209 2.9369,2.754704 0.53093,0.08269 1.85138,0.02448 2.48407,-0.109504 z"
     id="path20" /><path
     style="fill:#570abb;fill-opacity:0.862745;stroke:#5a0cbd;stroke-width:0.209261;stroke-opacity:0.862745"
     d="m 188.78185,18.197574 c -1.94423,-0.268366 -3.25378,-1.406836 -3.74966,-3.259811 -0.38032,-1.421117 -0.31117,-3.323998 0.16303,-4.486447 0.48846,-1.1973899 1.3795,-2.098484 2.59185,-2.6210802 1.81877,-0.7840033 4.54237,-0.7312919 7.13562,0.1380995 l 0.56686,0.1900418 0.0146,4.1828739 0.0146,4.182874 -0.32722,0.197075 c -1.20488,0.725653 -2.818,1.306404 -4.04907,1.457735 -0.45883,0.0564 -1.99887,0.06856 -2.36056,0.01864 z m 2.6492,-0.870669 c 0.64597,-0.131025 1.2565,-0.329388 1.94526,-0.632021 0.27589,-0.121224 0.52925,-0.203332 0.56302,-0.182462 0.0338,0.02088 0.0452,0.01171 0.0253,-0.02039 -0.0198,-0.03209 0.0785,-0.119131 0.2186,-0.193432 l 0.25465,-0.135093 V 12.42786 c 0,-3.4995917 -0.006,-3.7390111 -0.0995,-3.7888625 -0.159,-0.085055 -1.13182,-0.3367879 -1.71955,-0.4449644 -0.41339,-0.076086 -0.8333,-0.098687 -1.79062,-0.096374 -1.45491,0.00351 -1.79272,0.067495 -2.69083,0.5096354 -0.42671,0.2100681 -0.61611,0.3473849 -0.96636,0.7006103 -0.51535,0.5197203 -0.76196,0.9140442 -0.98297,1.5717492 -0.21801,0.648744 -0.29955,1.402347 -0.26094,2.411475 0.0443,1.158308 0.25189,2.000639 0.64877,2.632708 0.0744,0.118406 0.11956,0.240546 0.10048,0.271422 -0.0191,0.03088 -0.0136,0.04955 0.0122,0.04149 0.0258,-0.0081 0.17561,0.114878 0.33297,0.273195 0.48456,0.487505 1.19586,0.816559 2.01108,0.930341 0.53321,0.07442 1.75802,0.01653 2.39843,-0.113372 z"
     id="path21" /><path
     style="fill:#570abb;fill-opacity:0.862745;stroke:#5a0cbd;stroke-width:0.209261;stroke-opacity:0.862745"
     d="m 187.69829,20.371259 c -1.82836,-0.279733 -3.25438,-0.965225 -4.35977,-2.095756 -0.87746,-0.897411 -1.43068,-2.004906 -1.7572,-3.517772 -0.10619,-0.491962 -0.12655,-0.767633 -0.12924,-1.749312 -0.004,-1.554407 0.14392,-2.279128 0.69107,-3.3798198 1.21837,-2.4509124 3.63634,-4.0090259 6.83617,-4.4051442 1.01439,-0.1255752 2.67579,-0.050795 3.75855,0.1691738 0.49079,0.099706 1.3417,0.326694 1.60057,0.426966 0.0939,0.036386 0.0995,-0.1216734 0.0995,-2.838216 V 0.10463041 h 2.1601 2.16011 V 10.10933 20.114029 h -2.16011 -2.1601 v -0.483182 c 0,-0.26575 -0.0135,-0.483181 -0.0301,-0.483181 -0.0165,0 -0.31712,0.138885 -0.66793,0.308634 -0.76665,0.370965 -1.48363,0.611918 -2.40003,0.806571 -0.58047,0.123299 -0.86428,0.148045 -1.9043,0.166046 -0.85417,0.01478 -1.37727,-0.0026 -1.73728,-0.05766 z m 2.42499,-0.711176 c 0.73212,-0.07125 1.32716,-0.197137 2.02102,-0.427563 0.70345,-0.233609 1.25172,-0.505108 2.42457,-1.20062 0.4941,-0.293005 0.90977,-0.532736 0.92373,-0.532736 0.0139,0 0.0254,0.409283 0.0254,0.909518 V 19.3182 h 1.08005 1.08006 V 10.10933 0.90045875 H 196.59805 195.518 V 4.0220355 7.1436127 l -0.77796,-0.3122081 c -0.92817,-0.3724862 -1.95818,-0.6635115 -2.79162,-0.7887642 -0.8657,-0.130099 -2.53888,-0.1298342 -3.28022,5.292e-4 -2.46311,0.4331002 -4.33996,1.6902644 -5.39156,3.6114098 -0.60747,1.1097746 -0.85616,2.5140096 -0.72267,4.0806886 0.25895,3.039205 1.86328,5.052069 4.55871,5.719567 0.98088,0.242907 1.94698,0.308773 3.01063,0.205257 z"
     id="path22" /></svg>
