<?xml version="1.0" encoding="UTF-8" standalone="no"?>
<!-- Created with Inkscape (http://www.inkscape.org/) -->

<svg
   width="202.78644mm"
   height="26.011911mm"
   viewBox="0 0 202.78644 26.011911"
   version="1.1"
   id="svg1"
   xml:space="preserve"
   xmlns="http://www.w3.org/2000/svg"
   xmlns:svg="http://www.w3.org/2000/svg"><defs
     id="defs1"><linearGradient
       id="swatch8"><stop
         style="stop-color:#000000;stop-opacity:1;"
         offset="0"
         id="stop9" /></linearGradient><rect
       x="103.30534"
       y="2.4307139"
       width="487.21619"
       height="106.92095"
       id="rect3" /></defs><g
     id="layer1"
     transform="translate(-1.211062,-83.3791)"
     style="fill:#ffffff;fill-opacity:1;stroke:#570abb;stroke-width:1.2;stroke-dasharray:none;stroke-opacity:1"><path
       style="opacity:0.86;fill:#ffffff;fill-opacity:1;stroke:#570abb;stroke-width:1.1;stroke-linecap:round;stroke-linejoin:round;stroke-dasharray:none;stroke-opacity:1"
       d="m 7.2312469,108.16767 c -2.4563584,-0.67771 -4.4343148,-2.57996 -5.2345035,-5.03415 -0.446812,-1.37038 -0.2170807,-3.999047 0.4666175,-5.339207 0.786211,-1.5411 2.6423929,-3.13698 4.2821018,-3.6816 1.4626462,-0.48582 4.3031603,-0.44445 4.8177643,0.0701 0.156891,0.15689 -0.04811,0.69161 -0.550582,1.43613 -0.980585,1.45296 -1.3298701,2.33195 -1.6081721,4.04708 -0.382913,2.359807 0.390113,5.332817 1.8839581,7.245567 0.658814,0.84357 0.62388,1.02077 -0.234804,1.19102 -1.8624461,0.36928 -2.6697951,0.38301 -3.8223801,0.065 z m 9.7895841,-4.5e-4 c -2.398279,-0.66081 -4.393206,-2.54251 -5.197635,-4.90261 -0.392797,-1.15243 -0.374221,-3.385327 0.03612,-4.341057 l 0.318795,-0.74252 1.058333,0.80109 c 1.62939,1.233327 4.059676,1.952607 6.172848,1.826927 1.882958,-0.11199 4.428417,-1.091617 5.533143,-2.129447 0.327276,-0.30746 0.654208,-0.49986 0.726515,-0.42755 0.324747,0.32475 0.594875,2.848877 0.420318,3.927557 -0.699385,4.32188 -4.943539,7.12416 -9.068432,5.98761 z m 0.346258,-9.710367 c -0.638559,-0.12698 -1.207276,-0.27713 -1.263814,-0.33366 -0.05654,-0.0565 0.315195,-0.72394 0.826074,-1.4831 2.280345,-3.38858 2.283268,-7.55545 0.0075,-10.7563 -0.531569,-0.74766 -0.813993,-1.38085 -0.67701,-1.51783 0.129266,-0.12927 1.003595,-0.29672 1.942954,-0.37213 4.408327,-0.35385 7.932038,2.8357 7.932038,7.17984 0,4.7743 -4.130388,8.2053 -8.767788,7.28318 z M 1.9744249,93.263893 c -0.4252288,-1.28846 -0.1766153,-3.95723 0.4888173,-5.24727 1.2459279,-2.41541 3.8589135,-4.07732 6.4265857,-4.08745 4.7012621,-0.0185 7.7066411,3.4031 7.4315791,8.46086 -0.09144,1.68133 -0.357007,1.78128 -1.940375,0.7303 -1.721015,-1.14235 -3.25246,-1.58434 -5.4485681,-1.57252 -2.069302,0.0111 -3.9770786,0.6305 -5.4831172,1.78008 l -1.1612574,0.88641 z"
       id="path1" /></g><text
     xml:space="preserve"
     transform="matrix(0.47607029,0,0,0.33845624,-22.843446,-3.4378658)"
     id="text3"
     style="font-style:normal;font-variant:normal;font-weight:normal;font-stretch:normal;font-size:74.6667px;font-family:Tahoma;-inkscape-font-specification:Tahoma;writing-mode:lr-tb;direction:ltr;white-space:pre;shape-inside:url(#rect3);mix-blend-mode:multiply;fill:#570abb;fill-opacity:0.862745;stroke:#570abb;stroke-width:2.42645;stroke-dasharray:none;stroke-opacity:0.862745"><tspan
       x="103.30469"
       y="70.552337"
       id="tspan4"><tspan
         style="fill:#ffffff"
         id="tspan2">satu.pro.bd</tspan></tspan></text></svg>
